<svg width="28" height="28" viewBox="0 0 28 28" fill="none" xmlns="http://www.w3.org/2000/svg">
<g filter="url(#filter0_d_135_3)">
<path d="M10.2333 4.9465H18.2332C21.2808 4.9465 23.757 7.42265 23.757 10.4702V18.4701C23.757 19.9351 23.175 21.3401 22.1391 22.376C21.1032 23.4119 19.6982 23.9939 18.2332 23.9939H10.2333C7.18575 23.9939 4.70959 21.5177 4.70959 18.4701V10.4702C4.70959 9.00525 5.29156 7.60026 6.32746 6.56436C7.36336 5.52846 8.76835 4.9465 10.2333 4.9465ZM10.0429 6.85123C9.13356 6.85123 8.2615 7.21245 7.61852 7.85542C6.97555 8.4984 6.61433 9.37046 6.61433 10.2798V18.6606C6.61433 20.5558 8.14764 22.0891 10.0429 22.0891H18.4237C19.333 22.0891 20.2051 21.7279 20.848 21.0849C21.491 20.442 21.8522 19.5699 21.8522 18.6606V10.2798C21.8522 8.38454 20.3189 6.85123 18.4237 6.85123H10.0429ZM19.2332 8.27978C19.5489 8.27978 19.8517 8.40521 20.075 8.62846C20.2983 8.85172 20.4237 9.15452 20.4237 9.47024C20.4237 9.78597 20.2983 10.0888 20.075 10.312C19.8517 10.5353 19.5489 10.6607 19.2332 10.6607C18.9175 10.6607 18.6147 10.5353 18.3914 10.312C18.1682 10.0888 18.0428 9.78597 18.0428 9.47024C18.0428 9.15452 18.1682 8.85172 18.3914 8.62846C18.6147 8.40521 18.9175 8.27978 19.2332 8.27978ZM14.2333 9.70834C15.4962 9.70834 16.7074 10.21 17.6004 11.103C18.4934 11.9961 18.9951 13.2073 18.9951 14.4702C18.9951 15.7331 18.4934 16.9443 17.6004 17.8373C16.7074 18.7303 15.4962 19.232 14.2333 19.232C12.9704 19.232 11.7592 18.7303 10.8661 17.8373C9.97313 16.9443 9.47144 15.7331 9.47144 14.4702C9.47144 13.2073 9.97313 11.9961 10.8661 11.103C11.7592 10.21 12.9704 9.70834 14.2333 9.70834ZM14.2333 11.6131C13.4755 11.6131 12.7488 11.9141 12.213 12.4499C11.6772 12.9857 11.3762 13.7124 11.3762 14.4702C11.3762 15.2279 11.6772 15.9546 12.213 16.4905C12.7488 17.0263 13.4755 17.3273 14.2333 17.3273C14.991 17.3273 15.7177 17.0263 16.2536 16.4905C16.7894 15.9546 17.0904 15.2279 17.0904 14.4702C17.0904 13.7124 16.7894 12.9857 16.2536 12.4499C15.7177 11.9141 14.991 11.6131 14.2333 11.6131Z" fill="#F3E600"/>
</g>
<defs>
<filter id="filter0_d_135_3" x="0.709595" y="0.946495" width="27.0474" height="27.0474" filterUnits="userSpaceOnUse" color-interpolation-filters="sRGB">
<feFlood flood-opacity="0" result="BackgroundImageFix"/>
<feColorMatrix in="SourceAlpha" type="matrix" values="0 0 0 0 0 0 0 0 0 0 0 0 0 0 0 0 0 0 127 0" result="hardAlpha"/>
<feOffset/>
<feGaussianBlur stdDeviation="2"/>
<feComposite in2="hardAlpha" operator="out"/>
<feColorMatrix type="matrix" values="0 0 0 0 0.952941 0 0 0 0 0.901961 0 0 0 0 0 0 0 0 1 0"/>
<feBlend mode="normal" in2="BackgroundImageFix" result="effect1_dropShadow_135_3"/>
<feBlend mode="normal" in="SourceGraphic" in2="effect1_dropShadow_135_3" result="shape"/>
</filter>
</defs>
</svg>
