<svg width="33" height="31" viewBox="0 0 33 31" fill="none" xmlns="http://www.w3.org/2000/svg">
<g filter="url(#filter0_d_26_16)">
<path d="M8.04658 4.61711C7.01318 5.26115 4.97702 7.7166 4.95752 8.36053V9.42657C4.95752 10.7779 6.16087 11.9654 7.25321 11.9654C8.56479 11.9654 9.65777 10.8242 9.65798 9.46988C9.65798 10.8241 10.7135 11.9654 12.0254 11.9654C13.3371 11.9654 14.3588 10.8242 14.3588 9.46988C14.3588 10.8241 15.4807 11.9654 16.7923 11.9654H16.8158C18.1274 11.9654 19.2504 10.8242 19.2504 9.46988C19.2504 10.8241 20.2716 11.9654 21.5832 11.9654C22.8947 11.9654 23.9502 10.8242 23.9502 9.46988C23.9502 10.8241 25.0432 11.9654 26.3548 11.9654C27.4467 11.9654 28.65 10.778 28.65 9.42657V8.36053C28.6297 7.7166 26.5937 5.26115 25.5608 4.61711C22.3493 4.49868 20.1216 4.47832 16.803 4.47877C13.4856 4.47899 8.9604 4.53332 8.04637 4.61711H8.04658ZM14.3423 11.329C14.2168 11.5585 14.0614 11.7684 13.8806 11.9528C13.3674 12.4811 12.6771 12.7768 11.9583 12.7761C11.2098 12.7761 10.5271 12.4612 10.0321 11.9526C9.85311 11.7681 9.71702 11.5708 9.59165 11.3411V11.3416C9.46735 11.5717 9.29269 11.7688 9.11374 11.9535C8.59921 12.4817 7.90789 12.7772 7.18817 12.7764C7.09816 12.7764 7.00493 12.7506 6.92885 12.7236C6.82384 13.8765 6.77883 14.9776 6.7634 15.7818V15.7863C6.76126 16.1946 6.75965 16.5298 6.75762 16.9954C6.77798 19.4148 6.52938 24.835 7.77345 26.1667C9.70117 26.6391 13.2484 26.8539 16.8077 26.855H16.808C20.3671 26.8539 23.9145 26.6391 25.8422 26.1678C27.0863 24.8359 26.8377 19.4157 26.8581 16.9971C26.8563 16.5314 26.8544 16.196 26.8524 15.788V15.7835C26.8363 14.9802 26.7919 13.8787 26.6863 12.726C26.6102 12.753 26.5163 12.7792 26.4259 12.7792C25.7061 12.78 25.0146 12.4846 24.4998 11.9564C24.3203 11.7714 24.1462 11.5743 24.0216 11.3445L24.021 11.3437C23.896 11.5732 23.7598 11.7708 23.5803 11.9551C23.0853 12.4635 22.4027 12.7785 21.6544 12.7785C20.9062 12.7785 20.2271 12.4635 19.7321 11.9551C19.5514 11.7706 19.3959 11.5607 19.2702 11.3313C19.1462 11.5606 18.9924 11.7705 18.8131 11.9551C18.2983 12.4837 17.6066 12.7793 16.8864 12.7785C16.8603 12.7785 16.8339 12.7773 16.8082 12.7762H16.8074C16.7813 12.7773 16.7553 12.7785 16.7291 12.7785C15.9806 12.7785 15.2979 12.4635 14.8027 11.9551C14.6233 11.7707 14.4693 11.5608 14.3452 11.3316L14.3423 11.329ZM12.364 14.0141L12.3638 14.015H12.3659C13.1492 14.0168 13.8457 14.015 14.7072 15.0029C15.3866 14.9283 16.0949 14.8909 16.8053 14.8921H16.8064C17.5168 14.891 18.2251 14.9292 18.9045 15.0035C19.7671 14.0159 20.4625 14.0182 21.2458 14.0159H21.248V14.0148C21.6187 14.0148 23.0985 14.0148 24.1304 17.0561L25.2393 21.229C26.0606 24.3333 24.9764 24.4098 23.6241 24.412C21.6182 24.3344 20.5081 22.8048 20.5081 21.2762C19.3979 21.4674 18.1024 21.563 16.8075 21.563H16.8069C15.5119 21.563 14.2168 21.4674 13.1069 21.2762C13.1069 22.8048 11.9967 24.3333 9.99102 24.412C8.63872 24.4098 7.55431 24.3333 8.37587 21.2301L9.48385 17.0573C10.5158 14.0159 11.9966 14.0159 12.3663 14.0159L12.364 14.0141ZM16.8045 16.4042V16.405C16.8027 16.4069 14.6933 18.4404 14.3142 19.1636L15.6954 19.1056V20.3698C15.6954 20.4291 16.2498 20.405 16.8045 20.3781H16.8052C17.36 20.4051 17.9143 20.4291 17.9143 20.3699V19.1057L19.2955 19.1635C18.9164 18.4403 16.8052 16.405 16.8052 16.405V16.4043L16.805 16.4046L16.8045 16.4042Z" fill="#F3E600"/>
</g>
<defs>
<filter id="filter0_d_26_16" x="0.95752" y="0.47876" width="31.6925" height="30.3763" filterUnits="userSpaceOnUse" color-interpolation-filters="sRGB">
<feFlood flood-opacity="0" result="BackgroundImageFix"/>
<feColorMatrix in="SourceAlpha" type="matrix" values="0 0 0 0 0 0 0 0 0 0 0 0 0 0 0 0 0 0 127 0" result="hardAlpha"/>
<feOffset/>
<feGaussianBlur stdDeviation="2"/>
<feComposite in2="hardAlpha" operator="out"/>
<feColorMatrix type="matrix" values="0 0 0 0 0.952941 0 0 0 0 0.901961 0 0 0 0 0 0 0 0 1 0"/>
<feBlend mode="normal" in2="BackgroundImageFix" result="effect1_dropShadow_26_16"/>
<feBlend mode="normal" in="SourceGraphic" in2="effect1_dropShadow_26_16" result="shape"/>
</filter>
</defs>
</svg>
