<svg width="32" height="26" viewBox="0 0 32 26" fill="none" xmlns="http://www.w3.org/2000/svg">
<g filter="url(#filter0_d_26_222)">
<path d="M27.7659 8.24945C27.7659 8.24945 27.5364 6.55201 26.8296 5.80668C25.9346 4.82572 24.934 4.82092 24.475 4.76321C21.1887 4.51316 16.2546 4.51316 16.2546 4.51316H16.2454C16.2454 4.51316 11.3113 4.51316 8.025 4.76321C7.56602 4.82092 6.56543 4.82572 5.67041 5.80668C4.96357 6.55201 4.73867 8.24945 4.73867 8.24945C4.73867 8.24945 4.5 10.245 4.5 12.2358V14.1015C4.5 16.0923 4.73408 18.0879 4.73408 18.0879C4.73408 18.0879 4.96357 19.7853 5.66582 20.5306C6.56084 21.5116 7.73584 21.4779 8.25908 21.5837C10.1409 21.7712 16.25 21.829 16.25 21.829C16.25 21.829 21.1887 21.8193 24.475 21.5741C24.934 21.5164 25.9346 21.5116 26.8296 20.5306C27.5364 19.7853 27.7659 18.0879 27.7659 18.0879C27.7659 18.0879 28 16.0971 28 14.1015V12.2358C28 10.245 27.7659 8.24945 27.7659 8.24945ZM13.822 16.3664V9.44679L20.1697 12.9186L13.822 16.3664Z" fill="#F3E600"/>
</g>
<defs>
<filter id="filter0_d_26_222" x="0.5" y="0.513165" width="31.5" height="25.3158" filterUnits="userSpaceOnUse" color-interpolation-filters="sRGB">
<feFlood flood-opacity="0" result="BackgroundImageFix"/>
<feColorMatrix in="SourceAlpha" type="matrix" values="0 0 0 0 0 0 0 0 0 0 0 0 0 0 0 0 0 0 127 0" result="hardAlpha"/>
<feOffset/>
<feGaussianBlur stdDeviation="2"/>
<feComposite in2="hardAlpha" operator="out"/>
<feColorMatrix type="matrix" values="0 0 0 0 0.952941 0 0 0 0 0.901961 0 0 0 0 0 0 0 0 1 0"/>
<feBlend mode="normal" in2="BackgroundImageFix" result="effect1_dropShadow_26_222"/>
<feBlend mode="normal" in="SourceGraphic" in2="effect1_dropShadow_26_222" result="shape"/>
</filter>
</defs>
</svg>
