<?xml version="1.0" standalone="no"?><svg xmlns="http://www.w3.org/2000/svg" viewBox="0 0 1440 320"><path fill="#331A3D" fill-opacity="1" d="M0,192L0,64L36.9,64L36.9,224L73.8,224L73.8,192L110.8,192L110.8,96L147.7,96L147.7,224L184.6,224L184.6,128L221.5,128L221.5,96L258.5,96L258.5,96L295.4,96L295.4,96L332.3,96L332.3,160L369.2,160L369.2,160L406.2,160L406.2,32L443.1,32L443.1,288L480,288L480,64L516.9,64L516.9,160L553.8,160L553.8,64L590.8,64L590.8,96L627.7,96L627.7,128L664.6,128L664.6,288L701.5,288L701.5,96L738.5,96L738.5,224L775.4,224L775.4,288L812.3,288L812.3,256L849.2,256L849.2,320L886.2,320L886.2,192L923.1,192L923.1,224L960,224L960,128L996.9,128L996.9,96L1033.8,96L1033.8,160L1070.8,160L1070.8,160L1107.7,160L1107.7,256L1144.6,256L1144.6,288L1181.5,288L1181.5,224L1218.5,224L1218.5,288L1255.4,288L1255.4,128L1292.3,128L1292.3,256L1329.2,256L1329.2,288L1366.2,288L1366.2,320L1403.1,320L1403.1,96L1440,96L1440,0L1403.1,0L1403.1,0L1366.2,0L1366.2,0L1329.2,0L1329.2,0L1292.3,0L1292.3,0L1255.4,0L1255.4,0L1218.5,0L1218.5,0L1181.5,0L1181.5,0L1144.6,0L1144.6,0L1107.7,0L1107.7,0L1070.8,0L1070.8,0L1033.8,0L1033.8,0L996.9,0L996.9,0L960,0L960,0L923.1,0L923.1,0L886.2,0L886.2,0L849.2,0L849.2,0L812.3,0L812.3,0L775.4,0L775.4,0L738.5,0L738.5,0L701.5,0L701.5,0L664.6,0L664.6,0L627.7,0L627.7,0L590.8,0L590.8,0L553.8,0L553.8,0L516.9,0L516.9,0L480,0L480,0L443.1,0L443.1,0L406.2,0L406.2,0L369.2,0L369.2,0L332.3,0L332.3,0L295.4,0L295.4,0L258.5,0L258.5,0L221.5,0L221.5,0L184.6,0L184.6,0L147.7,0L147.7,0L110.8,0L110.8,0L73.8,0L73.8,0L36.9,0L36.9,0L0,0L0,0Z"></path></svg>